<svg xmlns="http://www.w3.org/2000/svg" xmlns:xlink="http://www.w3.org/1999/xlink" style="isolation:isolate" viewBox="0 0 20 20" version="1.1" shape-rendering="crispEdges"><path d="M3 20v-3h1v-1h4v-2H6v-1H5v-1H4v-1H3V9H2V7h1V4h1V3h1V2h10v1h1v1h1v3h1v2h-1v2h-1v1h-1v1h-1v1h-2v2h4v1h1v3H3z" fill="#B68655"/><path d="M14 14v-1h1v-1h1v-1h1V9h1V7h-1V4h-1V3h-1V2H5v1H4v1H3v3H2v2h1v2h1v1h1v1h1v1h8z" fill="#FFF" fill-opacity=".1"/><path d="M5 7h3v2H5V7zm7 0h3v2h-3V7z" fill="#FFF"/><path d="M6 8h1v1H6V8zm7 1V8h1v1h-1z" fill="#5b7c8b"/><path d="M8 4v1H7v1H5V5h2V4h1zm4 0h1v1h2v1h-2V5h-1V4z" fill-rule="evenodd" fill="#3b2b23"/><path d="M9 12v1h1v1h1v-2H9z" fill="#e35d6a"/><path d="M3 20v-3h1v-1h5v1h2v-1h5v1h1v3H3z" fill="#740001"/><path d="M3 20v-2h1v1h3v1H3zm14 0v-2h-1v1h-3v1h4z" fill-rule="evenodd" fill="#FFF" fill-opacity=".4"/><path d="M7 16H4v1H3v1h1v1h3v1h6v-1h3v-1h1v-1h-1v-1h-3v1H7v-1z" fill="#FFF" fill-opacity=".2"/><path d="M2 17h2v-1h4v-2H6v-1H5v-1H4V4h1V3h1v1h1V3h1v1h1V3h6v1h1v8h-1v1h-1v1h-2v2h4v1h2V3h-1V2h-1V1H4v1H3v1H2v14z" fill="#533d32"/></svg>